<svg xmlns="http://www.w3.org/2000/svg" style="display:none" aria-hidden="true">
  <symbol id="icon-shield" viewBox="0 0 24 24" fill="none" stroke="currentColor" stroke-width="1.5">
    <path d="M12 2L4 5v6c0 5.25 3.4 10.15 8 11.35C16.6 21.15 20 16.25 20 11V5l-8-3z"/>
    <path d="M9 12l2 2 4-4" stroke-linecap="round" stroke-linejoin="round"/>
  </symbol>
  <symbol id="icon-money" viewBox="0 0 24 24" fill="none" stroke="currentColor" stroke-width="1.5">
    <rect x="2" y="6" width="20" height="12" rx="2"/>
    <circle cx="12" cy="12" r="3"/>
    <path d="M6 10h.01M18 14h.01" stroke-linecap="round"/>
  </symbol>
  <symbol id="icon-home" viewBox="0 0 24 24" fill="none" stroke="currentColor" stroke-width="1.5">
    <path d="M3 10.5L12 3l9 7.5V20a1 1 0 01-1 1h-5v-6H9v6H4a1 1 0 01-1-1v-9.5z"/>
  </symbol>
  <symbol id="icon-education" viewBox="0 0 24 24" fill="none" stroke="currentColor" stroke-width="1.5">
    <path d="M12 3L2 8l10 5 10-5-10-5z"/>
    <path d="M6 11v4c0 2.2 2.7 4 6 4s6-1.8 6-4v-4"/>
  </symbol>
  <symbol id="icon-medical" viewBox="0 0 24 24" fill="none" stroke="currentColor" stroke-width="1.5">
    <rect x="3" y="3" width="18" height="18" rx="3"/>
    <path d="M12 8v8M8 12h8" stroke-linecap="round"/>
  </symbol>
  <symbol id="icon-career" viewBox="0 0 24 24" fill="none" stroke="currentColor" stroke-width="1.5">
    <path d="M3 20h18M7 20V10l5-4 5 4v10"/>
    <path d="M9 14h6"/>
  </symbol>
  <symbol id="icon-team" viewBox="0 0 24 24" fill="none" stroke="currentColor" stroke-width="1.5">
    <circle cx="9" cy="8" r="3"/>
    <circle cx="17" cy="10" r="2.5"/>
    <path d="M2 20c0-3.3 3.1-6 7-6s7 2.7 7 6"/>
    <path d="M17 20c0-2.2 1.8-4 4-4"/>
  </symbol>
  <symbol id="icon-phone" viewBox="0 0 24 24" fill="none" stroke="currentColor" stroke-width="1.5">
    <path d="M5 4h4l2 5-2.5 1.5a11 11 0 005 5L15 13l5 2v4a2 2 0 01-2 2A15 15 0 013 6a2 2 0 012-2z"/>
  </symbol>
  <symbol id="icon-arrow-down" viewBox="0 0 24 24" fill="none" stroke="currentColor" stroke-width="2">
    <path d="M12 5v14M6 13l6 6 6-6" stroke-linecap="round" stroke-linejoin="round"/>
  </symbol>
  <symbol id="icon-check" viewBox="0 0 24 24" fill="none" stroke="currentColor" stroke-width="2">
    <path d="M5 12l5 5L19 7" stroke-linecap="round" stroke-linejoin="round"/>
  </symbol>
</svg>
